<svg width="178" height="81" viewBox="0 0 178 81" fill="none" xmlns="http://www.w3.org/2000/svg">
<path d="M9.63701 35.0029C12.5168 35.0029 14.9175 36.4879 16.0356 38.0928V35.4038H20.434V55.4652H17.4468C16.6675 55.4652 16.0356 54.8323 16.0356 54.0495V52.7789C14.9175 54.3824 12.5168 55.8663 9.63701 55.8663C4.16027 55.8663 0 51.173 0 45.4352C0 39.6974 4.16027 35.0029 9.63701 35.0029ZM10.4372 39.0159C6.87756 39.0159 4.4779 41.8238 4.4779 45.4352C4.4779 49.0455 6.87756 51.8551 10.4372 51.8551C13.9957 51.8551 16.3965 49.0455 16.3965 45.4352C16.3965 41.8238 13.9959 39.0159 10.4372 39.0159Z" fill="#737373"/>
<path d="M25.4297 35.4045H29.8292V38.1327C31.0278 36.1272 33.3083 35.0037 35.9077 35.0037C40.5457 35.0037 43.5457 38.2937 43.5457 43.3897V55.4653H40.5574C39.7783 55.4653 39.1462 54.8312 39.1462 54.0495V44.1119C39.1462 40.9426 37.5458 39.0166 34.9883 39.0166C32.0689 39.0166 29.8295 41.3036 29.8295 45.5958V55.4653H26.8398C26.0618 55.4653 25.4297 54.8312 25.4297 54.0495V35.4045V35.4045Z" fill="#737373"/>
<path d="M56.6633 35.003C59.5419 35.003 61.9427 36.488 63.0619 38.0928V25.3743H67.4592V55.4652H64.472C63.694 55.4652 63.0619 54.8323 63.0619 54.0495V52.779C61.9427 54.3824 59.5419 55.8663 56.6633 55.8663C51.1841 55.8663 47.0254 51.173 47.0254 45.4352C47.0254 39.6974 51.1843 35.003 56.6633 35.003ZM57.4637 39.0159C53.9052 39.0159 51.5055 41.8238 51.5055 45.4352C51.5055 49.0455 53.9052 51.8552 57.4637 51.8552C61.0209 51.8552 63.4205 49.0455 63.4205 45.4352C63.4205 41.8238 61.0209 39.0159 57.4637 39.0159Z" fill="#737373"/>
<path d="M72.4551 35.4045H76.8535V38.9754C77.6129 36.6884 79.8525 35.2041 82.1327 35.2041C82.6912 35.2041 83.253 35.2446 83.8525 35.3647V39.8981C83.0907 39.6571 82.453 39.5371 81.6539 39.5371C79.134 39.5371 76.8537 41.6646 76.8537 45.6766V55.4653H73.8654C73.0875 55.4653 72.4553 54.8312 72.4553 54.0495V35.4045H72.4551Z" fill="#737373"/>
<path d="M95.713 55.8663C89.7959 55.8663 85.2363 51.2514 85.2363 45.4363C85.2363 39.6183 89.7959 35.0029 95.713 35.0029C101.633 35.0029 106.19 39.6172 106.19 45.4363C106.19 51.2514 101.633 55.8663 95.713 55.8663ZM95.713 51.7754C99.2321 51.7754 101.712 49.0056 101.712 45.4363C101.712 41.8661 99.2318 39.0963 95.713 39.0963C92.1547 39.0963 89.6756 41.8661 89.6756 45.4363C89.6756 49.0056 92.1547 51.7754 95.713 51.7754Z" fill="#737373"/>
<path d="M111.953 31.0317C110.354 31.0317 108.994 29.709 108.994 28.0621C108.994 26.4573 110.354 25.1335 111.953 25.1335C113.592 25.1335 114.873 26.4575 114.873 28.0621C114.873 29.709 113.592 31.0317 111.953 31.0317ZM109.756 35.4039H114.153V55.4653H111.166C110.387 55.4653 109.756 54.8299 109.756 54.0495V35.4039Z" fill="#737373"/>
<path d="M127.405 35.003C130.285 35.003 132.685 36.488 133.805 38.0928V25.3743H138.203V55.4652H135.216C134.435 55.4652 133.805 54.8323 133.805 54.0495V52.779C132.685 54.3824 130.285 55.8663 127.405 55.8663C121.928 55.8663 117.77 51.173 117.77 45.4352C117.77 39.6974 121.928 35.003 127.405 35.003ZM128.206 39.0159C124.648 39.0159 122.249 41.8238 122.249 45.4352C122.249 49.0455 124.648 51.8552 128.206 51.8552C131.765 51.8552 134.165 49.0455 134.165 45.4352C134.165 41.8238 131.765 39.0159 128.206 39.0159Z" fill="#737373"/>
<path d="M145.851 37.9564H141.547V35.2944H145.851V29.6851H148.665V35.2944H154.537V37.9564H148.665V49.6175C148.665 52.078 149.752 53.0461 152.003 53.0461C152.806 53.0461 153.893 52.8844 154.537 52.6031V55.1444C153.61 55.5079 152.646 55.6693 151.56 55.6693C148.143 55.6693 145.851 53.6908 145.851 49.8578V37.9564V37.9564Z" fill="#737373"/>
<path d="M177.418 35.2937L168.009 55.4678H165.797L156.387 35.2937H159.524L166.883 51.3114L174.241 35.2937H177.418Z" fill="#737373"/>
</svg>
