<svg width="83" height="81" viewBox="0 0 83 81" fill="none" xmlns="http://www.w3.org/2000/svg">
<path d="M17.387 29.9735C18.5595 28.5839 19.1405 26.8017 19.0084 25C17.2114 25.1707 15.5526 26.0236 14.3836 27.3779C13.8015 28.0266 13.3553 28.7822 13.0707 29.6011C12.7862 30.4201 12.6688 31.2863 12.7253 32.1501C13.6205 32.1674 14.5075 31.9798 15.3165 31.6021C16.1254 31.2243 16.8342 30.6669 17.387 29.9735V29.9735ZM18.8979 32.4784C16.3183 32.3315 14.1441 33.9295 12.9096 33.9295C11.6751 33.9295 9.79569 32.5582 7.7689 32.5945C6.44179 32.6313 5.14775 33.0103 4.01607 33.6937C2.8844 34.3771 1.95474 35.3409 1.31999 36.4888C-1.44383 41.2047 0.582971 48.2297 3.27309 52.0696C4.58129 53.8943 6.14746 56.0691 8.22953 55.9983C10.3116 55.9276 10.9565 54.7286 13.3334 54.7286C15.7103 54.7286 16.4104 55.9983 18.4741 55.953C20.5377 55.9076 21.9749 54.1246 23.2647 52.1439C24.195 50.7911 24.9212 49.3125 25.4205 47.7545C24.1815 47.2145 23.1275 46.3335 22.3854 45.2174C21.6433 44.1014 21.2448 42.798 21.2379 41.4641C21.2532 40.2806 21.5698 39.1198 22.1589 38.088C22.748 37.0562 23.5907 36.1864 24.6098 35.5583C23.9623 34.6469 23.1102 33.8947 22.1196 33.3599C21.129 32.8252 20.0266 32.5223 18.8979 32.4748V32.4784ZM35.3518 28.8181V33.9966H39.5528V37.4157H35.3518V49.6681C35.3518 51.4964 36.1809 52.4287 38.0235 52.4287C38.5288 52.4197 39.0331 52.3834 39.5344 52.3199V55.7661C38.7121 55.8972 37.8798 55.9579 37.0469 55.9475C32.6985 55.9475 31.0218 54.2843 31.0218 50.1143V37.4973H27.7237V34.0691H30.9297V28.8217L35.3518 28.8181ZM54.2379 55.7589H49.6315L41.8928 34.0691H46.4808L51.9163 51.4964H52.0268L57.4623 34.0691H61.9581L54.2379 55.7589ZM74.469 55.7589H70.4891V46.8711H61.9397V42.9569H70.4707V34.0691H74.4506V42.9569H83V46.8711H74.469V55.7589Z" fill="#737373"/>
</svg>
