<svg width="97" height="77" viewBox="0 0 97 77" fill="none" xmlns="http://www.w3.org/2000/svg">
<path fill-rule="evenodd" clip-rule="evenodd" d="M52.0818 36.1637C48.8522 36.1755 47.625 39.8455 47.6421 42.3235C47.658 44.6814 48.8324 48.3436 52.1095 48.358C55.2862 48.3711 56.6854 44.6279 56.6444 41.9149C56.6021 39.2358 55.1844 36.1559 52.0818 36.1637V36.1637ZM60.8407 42.0885C60.8407 47.3331 57.7183 51.3361 52.0857 51.3361C46.6516 51.3361 43.5371 47.4584 43.5371 42.3575C43.5371 37.3192 46.805 33.153 52.0064 33.123C57.5688 33.0904 60.8407 36.8126 60.8407 42.0885V42.0885Z" fill="#737373"/>
<path fill-rule="evenodd" clip-rule="evenodd" d="M19.184 31.047C17.5732 29.7087 14.7007 29.6944 12.8188 30.0743V38.5385C15.6106 39.0059 18.7066 38.6351 19.9193 36.2602C20.7564 34.6178 20.6467 32.2625 19.184 31.047V31.047ZM19.2157 41.2815C17.3563 41.9004 14.46 42.0779 12.8188 41.6928V50.9638H8.82617V27.1537C11.9274 26.685 15.276 26.4186 18.4473 26.9631C22.0816 27.5871 24.5202 30.103 24.515 33.8553C24.5097 37.306 22.7005 40.1248 19.2157 41.2815V41.2815Z" fill="#737373"/>
<path fill-rule="evenodd" clip-rule="evenodd" d="M5.35785 33.4976V50.9638H1.36523V33.4976H5.35785Z" fill="#737373"/>
<path fill-rule="evenodd" clip-rule="evenodd" d="M5.342 29.962C4.8659 30.56 4.12133 30.8798 3.37677 30.8981C2.58459 30.9164 1.79242 30.59 1.3269 29.8915C0.770125 29.0572 0.734417 27.8339 1.3626 27.0296C1.82416 26.4395 2.5555 26.1405 3.2961 26.1275C4.0605 26.1131 4.83416 26.4016 5.3301 26.98C6.03499 27.7986 6.00854 29.1251 5.342 29.962V29.962Z" fill="#737373"/>
<path fill-rule="evenodd" clip-rule="evenodd" d="M92.2624 40.3965C92.2624 39.2267 91.8193 37.6391 90.8169 36.7983C89.501 35.6951 87.426 35.7956 86.0995 36.8675C85.105 37.6704 84.3975 39.1014 84.42 40.3965H92.2624V40.3965ZM96.0566 43.2349H84.42C84.42 46.1463 86.04 48.0094 89.1902 48.2105C90.8314 48.3149 92.9117 47.9611 94.4855 47.3841L95.1877 50.1859C93.692 51.0084 91.1396 51.3113 89.2285 51.3074C83.9359 51.2995 80.3691 48.0995 80.3691 42.4802C80.3691 39.2593 81.5197 36.2878 83.9029 34.5683C86.524 32.6752 90.8433 32.5512 93.3891 34.6493C95.4192 36.3231 96.1756 39.1523 96.0936 41.9175L96.0566 43.2349V43.2349Z" fill="#737373"/>
<path fill-rule="evenodd" clip-rule="evenodd" d="M37.4899 40.6288C37.4899 38.1194 36.1926 36.4561 34.0554 36.4561C32.8123 36.4561 30.1567 37.0815 30.1567 41.4121V50.926H26.2156L26.1641 25.6641H30.1567V35.9783C31.2848 34.1256 33.131 33.2052 35.3356 33.2052C39.6218 33.2052 41.4825 36.1049 41.4825 40.4682V50.9639H37.4899V40.6288V40.6288Z" fill="#737373"/>
<path fill-rule="evenodd" clip-rule="evenodd" d="M74.305 40.7788C74.305 38.3308 73.251 36.456 70.8401 36.456C69.7741 36.456 67.4095 37.101 67.0022 40.4564V50.9638H63.0096C62.9884 45.1552 63.0056 39.3061 62.8535 33.4975H66.4243C66.5142 34.3775 66.575 35.2575 66.6081 36.1374C67.8221 34.1373 69.8786 33.2051 72.1189 33.2051C76.0243 33.2051 78.2963 35.8789 78.2963 40.0164V50.9638H74.3037V40.7788H74.305V40.7788Z" fill="#737373"/>
</svg>
