<svg width="195" height="81" viewBox="0 0 195 81" fill="none" xmlns="http://www.w3.org/2000/svg">
<path d="M9.40753 35.2068C12.1887 35.2068 14.4989 36.6422 15.5979 38.1898V35.5881H19.8369V54.8992H16.7866C16.6273 54.8999 16.4696 54.869 16.3223 54.8084C16.1751 54.7477 16.0413 54.6585 15.9287 54.5459C15.8161 54.4333 15.7269 54.2996 15.6663 54.1523C15.6057 54.0051 15.5748 53.8473 15.5754 53.6881V52.2975C14.4989 53.8675 12.1887 55.3029 9.40753 55.3029C4.11435 55.3029 0.0996094 50.7723 0.0996094 45.2549C0.0996094 39.7374 4.11435 35.2068 9.40753 35.2068ZM10.1701 39.0645C6.73851 39.0645 4.40592 41.7784 4.40592 45.2549C4.40592 48.7313 6.71608 51.4452 10.1701 51.4452C13.6017 51.4452 15.9343 48.7313 15.9343 45.2549C15.9343 41.7784 13.6241 39.0645 10.1701 39.0645V39.0645ZM24.6591 35.5881H28.9205V38.2123C30.0868 36.2834 32.2848 35.2068 34.7968 35.2068C39.2826 35.2068 42.1759 38.3693 42.1759 43.2811V54.8992H39.1256C38.9664 54.8999 38.8086 54.869 38.6613 54.8084C38.5141 54.7477 38.3803 54.6585 38.2677 54.5459C38.1551 54.4333 38.0659 54.2996 38.0053 54.1523C37.9447 54.0051 37.9138 53.8473 37.9144 53.6881V43.9764C37.9144 40.9261 36.3669 39.0645 33.8997 39.0645C31.0737 39.0645 28.9205 41.2626 28.9205 45.3894V54.8992H25.8702C25.711 54.8999 25.5532 54.869 25.406 54.8084C25.2587 54.7477 25.1249 54.6585 25.0123 54.5459C24.8997 54.4333 24.8106 54.2996 24.7499 54.1523C24.6893 54.0051 24.6584 53.8473 24.6591 53.6881V35.5881ZM54.8481 35.2068C57.6293 35.2068 59.9394 36.6422 61.0385 38.1898V25.9437H65.2775V54.9216H62.2272C62.0679 54.9223 61.9102 54.8914 61.7629 54.8308C61.6157 54.7702 61.4819 54.681 61.3693 54.5684C61.2567 54.4558 61.1675 54.322 61.1069 54.1748C61.0463 54.0275 61.0154 53.8697 61.016 53.7105V52.3199C59.9394 53.8675 57.6069 55.3029 54.8257 55.3029C49.5325 55.3029 45.5178 50.7723 45.5178 45.2549C45.5402 39.7374 49.5549 35.2068 54.8481 35.2068V35.2068ZM55.6107 39.0645C52.1791 39.0645 49.8465 41.7784 49.8465 45.2549C49.8465 48.7313 52.1567 51.4452 55.6107 51.4452C59.0423 51.4452 61.3749 48.7313 61.3749 45.2549C61.3749 41.7784 59.0423 39.0645 55.6107 39.0645V39.0645ZM70.0997 35.5881H74.3387V39.0197C74.7105 37.9639 75.399 37.0485 76.3101 36.3983C77.2212 35.748 78.3107 35.3946 79.43 35.3862C79.987 35.3849 80.5428 35.4375 81.0897 35.5432V39.9168C80.4029 39.6852 79.6838 39.5641 78.959 39.558C76.5143 39.558 74.3163 41.599 74.3163 45.4792V54.8992H71.266C71.1067 54.8999 70.9489 54.869 70.8017 54.8084C70.6545 54.7477 70.5207 54.6585 70.4081 54.5459C70.2955 54.4333 70.2063 54.2996 70.1457 54.1523C70.085 54.0051 70.0542 53.8473 70.0548 53.6881V35.5881H70.0997ZM92.5732 55.3029C86.8539 55.3029 82.4579 50.862 82.4579 45.2549C82.4579 39.6477 86.8539 35.2068 92.5732 35.2068C98.2926 35.2068 102.689 39.6477 102.689 45.2549C102.689 50.862 98.2926 55.3029 92.5732 55.3029ZM92.5732 51.3555C95.9824 51.3555 98.3599 48.6865 98.3599 45.2549C98.3599 41.8233 95.96 39.1543 92.5732 39.1543C89.1416 39.1543 86.7418 41.8233 86.7418 45.2549C86.7418 48.6865 89.1416 51.3555 92.5732 51.3555ZM108.251 31.3715C107.497 31.3666 106.775 31.0649 106.242 30.5318C105.709 29.9987 105.407 29.277 105.402 28.523C105.416 27.7738 105.721 27.0594 106.253 26.5316C106.785 26.0039 107.502 25.7044 108.251 25.697C109.003 25.697 109.725 25.9959 110.257 26.528C110.789 27.0601 111.088 27.7818 111.088 28.5343C111.088 29.2867 110.789 30.0084 110.257 30.5405C109.725 31.0726 109.003 31.3715 108.251 31.3715V31.3715ZM106.143 35.5881H110.382V54.8992H107.354C107.195 54.8999 107.037 54.869 106.89 54.8084C106.742 54.7477 106.608 54.6585 106.496 54.5459C106.383 54.4333 106.294 54.2996 106.233 54.1523C106.173 54.0051 106.142 53.8473 106.143 53.6881V35.5881V35.5881ZM123.188 35.2068C125.97 35.2068 128.28 36.6422 129.379 38.1898V25.9437H133.618V54.9216H130.568C130.408 54.9223 130.25 54.8914 130.103 54.8308C129.956 54.7702 129.822 54.681 129.71 54.5684C129.597 54.4558 129.508 54.322 129.447 54.1748C129.387 54.0275 129.356 53.8697 129.356 53.7105V52.3199C128.28 53.8675 125.947 55.3029 123.166 55.3029C117.873 55.3029 113.858 50.7723 113.858 45.2549C113.881 39.7374 117.895 35.2068 123.188 35.2068V35.2068ZM123.973 39.0645C120.542 39.0645 118.209 41.7784 118.209 45.2549C118.209 48.7313 120.519 51.4452 123.973 51.4452C127.405 51.4452 129.738 48.7313 129.738 45.2549C129.738 41.7784 127.405 39.0645 123.973 39.0645" fill="#737373"/>
<path d="M180.516 47.6099C180.09 47.6099 179.674 47.4836 179.32 47.247C178.966 47.0104 178.69 46.6741 178.527 46.2807C178.364 45.8872 178.321 45.4543 178.404 45.0366C178.488 44.619 178.693 44.2353 178.994 43.9342C179.295 43.6331 179.679 43.428 180.096 43.3449C180.514 43.2618 180.947 43.3045 181.34 43.4674C181.734 43.6304 182.07 43.9064 182.307 44.2605C182.543 44.6146 182.669 45.0308 182.669 45.4567C182.669 46.0278 182.443 46.5754 182.039 46.9792C181.635 47.383 181.087 47.6099 180.516 47.6099V47.6099ZM156.809 47.6099C156.383 47.6099 155.967 47.4836 155.613 47.247C155.259 47.0104 154.983 46.6741 154.82 46.2807C154.657 45.8872 154.614 45.4543 154.697 45.0366C154.78 44.619 154.985 44.2353 155.287 43.9342C155.588 43.6331 155.971 43.428 156.389 43.3449C156.807 43.2618 157.24 43.3045 157.633 43.4674C158.027 43.6304 158.363 43.9064 158.599 44.2605C158.836 44.6146 158.962 45.0308 158.962 45.4567C158.962 46.0278 158.735 46.5754 158.332 46.9792C157.928 47.383 157.38 47.6099 156.809 47.6099V47.6099ZM181.279 34.6909L185.585 27.267C185.643 27.1654 185.681 27.0532 185.695 26.9371C185.71 26.8209 185.702 26.703 185.67 26.5901C185.639 26.4772 185.586 26.3715 185.514 26.2792C185.442 26.1869 185.353 26.1097 185.251 26.0521C185.149 25.9945 185.037 25.9576 184.92 25.9435C184.804 25.9294 184.686 25.9384 184.574 25.9701C184.461 26.0017 184.355 26.0552 184.263 26.1277C184.171 26.2002 184.095 26.2901 184.038 26.3923L179.686 33.9059C176.231 32.3267 172.473 31.5156 168.674 31.5285C164.87 31.5192 161.108 32.3221 157.639 33.8835L153.288 26.3699C153.171 26.1658 152.979 26.0163 152.752 25.954C152.525 25.8916 152.283 25.9215 152.079 26.0372C151.874 26.1528 151.724 26.3447 151.66 26.571C151.597 26.7973 151.626 27.0394 151.74 27.2446L156.024 34.6685C152.32 36.6886 149.178 39.6006 146.883 43.141C144.589 46.6813 143.213 50.7381 142.881 54.9441H194.4C194.078 50.741 192.709 46.6855 190.417 43.1478C188.125 39.61 184.983 36.7026 181.279 34.6909" fill="#737373"/>
</svg>
