<svg width="132" height="81" viewBox="0 0 132 81" fill="none" xmlns="http://www.w3.org/2000/svg">
<path d="M47.4822 48.7497H47.4219L43.7259 33.1835H39.3782L35.6973 48.7497H35.6365L32.2133 33.1835H27.6385L33.3946 54.9769H37.7116L41.5136 40.0803H41.5895L45.3915 54.9769H49.7392L55.4801 33.1835H50.9054L47.4822 48.7497ZM102.12 32.832C96.6673 32.832 93.4104 36.552 93.4104 42.7947V45.4299C93.4104 51.7363 96.6517 55.3449 102.105 55.3449C107.573 55.3449 110.3 51.8322 110.3 47.9038V47.5053H106.195C106.195 49.7563 105.134 51.5124 102.181 51.5124C99.2116 51.5124 97.7576 49.5806 97.7576 45.4299V42.7947C97.7576 38.6922 99.2267 36.6324 102.15 36.6324C104.892 36.6324 106.195 38.5481 106.195 40.7038H110.3V40.4799C110.3 36.2328 107.24 32.832 102.12 32.832ZM62.4029 33.1835L55.7379 54.9769H60.0248L61.522 49.4847H68.0633L69.5371 54.9769H74.127L67.4776 33.1835H62.4029ZM62.4366 46.1322L64.7965 37.4783H64.8417L67.1637 46.1322H62.4366ZM127.599 33.1835V41.9333H119.146V33.1835H114.86V54.9769H119.146V45.6849H127.599V54.9774H131.901V33.1835H127.599ZM74.0516 36.9511H80.201V54.9769H84.4728V36.9511H90.6379V33.1835H74.0516V36.9511ZM19.6016 41.4276C19.5678 37.6674 22.5144 35.8583 22.649 35.771C20.9762 33.1749 18.3923 32.8883 17.4823 32.8165C15.1593 32.6365 13.1903 34.1847 12.0906 34.1847C10.9754 34.1847 9.25572 32.8556 7.43214 32.8915C5.03847 32.9295 2.83189 34.3583 1.59816 36.619C-0.888535 41.1699 0.963103 47.9097 3.38484 51.5997C4.56972 53.4051 5.98222 55.437 7.83854 55.3626C9.62521 55.2886 10.3003 54.1438 12.4601 54.1438C14.6183 54.1438 15.2274 55.3626 17.1165 55.3245C19.0388 55.2892 20.2574 53.486 21.433 51.6699C22.7946 49.5774 23.3537 47.5513 23.387 47.4415C23.3439 47.4265 19.638 45.9276 19.6016 41.4276ZM16.0485 30.3795C17.0349 29.1244 17.699 27.3731 17.5161 25.6353C16.0963 25.6936 14.3803 26.6322 13.3617 27.8858C12.4502 28.9985 11.6489 30.7792 11.8661 32.4854C13.4491 32.6135 15.0632 31.6363 16.0485 30.3795Z" fill="#737373"/>
</svg>
