<svg width="22" height="20" viewBox="0 0 22 20" fill="none" xmlns="http://www.w3.org/2000/svg">
<path d="M0.6875 12.2388C0.869836 12.2388 1.0447 12.3112 1.17364 12.4401C1.30257 12.5691 1.375 12.7439 1.375 12.9263V16.3638C1.375 16.7284 1.51987 17.0782 1.77773 17.336C2.03559 17.5939 2.38533 17.7388 2.75 17.7388H19.25C19.6147 17.7388 19.9644 17.5939 20.2223 17.336C20.4801 17.0782 20.625 16.7284 20.625 16.3638V12.9263C20.625 12.7439 20.6974 12.5691 20.8264 12.4401C20.9553 12.3112 21.1302 12.2388 21.3125 12.2388C21.4948 12.2388 21.6697 12.3112 21.7986 12.4401C21.9276 12.5691 22 12.7439 22 12.9263V16.3638C22 17.0931 21.7103 17.7926 21.1945 18.3083C20.6788 18.824 19.9793 19.1138 19.25 19.1138H2.75C2.02065 19.1138 1.32118 18.824 0.805456 18.3083C0.289731 17.7926 0 17.0931 0 16.3638V12.9263C0 12.7439 0.0724328 12.5691 0.201364 12.4401C0.330295 12.3112 0.505164 12.2388 0.6875 12.2388Z" fill="#006AFF"/>
<path d="M10.5141 0.201979C10.578 0.137955 10.6538 0.0871581 10.7374 0.0524992C10.8209 0.0178403 10.9104 0 11.0009 0C11.0913 0 11.1808 0.0178403 11.2644 0.0524992C11.3479 0.0871581 11.4238 0.137955 11.4876 0.201979L15.6126 4.32698C15.7417 4.45607 15.8142 4.63116 15.8142 4.81373C15.8142 4.9963 15.7417 5.17138 15.6126 5.30048C15.4835 5.42957 15.3084 5.5021 15.1259 5.5021C14.9433 5.5021 14.7682 5.42957 14.6391 5.30048L11.6884 2.34835V14.4387C11.6884 14.6211 11.6159 14.7959 11.487 14.9249C11.3581 15.0538 11.1832 15.1262 11.0009 15.1262C10.8185 15.1262 10.6437 15.0538 10.5147 14.9249C10.3858 14.7959 10.3134 14.6211 10.3134 14.4387V2.34835L7.36262 5.30048C7.2987 5.3644 7.22281 5.4151 7.1393 5.4497C7.05578 5.48429 6.96627 5.5021 6.87587 5.5021C6.78547 5.5021 6.69596 5.48429 6.61244 5.4497C6.52892 5.4151 6.45304 5.3644 6.38912 5.30048C6.3252 5.23656 6.27449 5.16067 6.2399 5.07716C6.20531 4.99364 6.1875 4.90413 6.1875 4.81373C6.1875 4.72333 6.20531 4.63382 6.2399 4.5503C6.27449 4.46678 6.3252 4.3909 6.38912 4.32698L10.5141 0.201979Z" fill="#006AFF"/>
</svg>
